<?xml version="1.0" encoding="iso-8859-1"?>
<!-- Generator: Adobe Illustrator 19.0.0, SVG Export Plug-In . SVG Version: 6.00 Build 0)  -->
<svg fill="#687588" version="1.1" id="Layer_1" xmlns="http://www.w3.org/2000/svg" xmlns:xlink="http://www.w3.org/1999/xlink" x="0px" y="0px"
	 viewBox="0 0 512.003 512.003" style="enable-background:new 0 0 512.003 512.003;" xml:space="preserve">
<g>
	<g>
		<g>
			<path d="M136.586,170.408l-0.051-0.051V86.448c-38.622,6.17-68.267,39.62-68.267,79.949c0,44.706,36.369,81.067,81.067,81.067
				c17.101,0,32.956-5.35,46.046-14.421l-56.346-56.346C137.303,174.964,136.518,172.678,136.586,170.408z"/>
			<path d="M229.803,156.942c-0.23-1.937-0.521-3.857-0.879-5.751c-0.111-0.572-0.205-1.135-0.324-1.707
				c-0.495-2.321-1.084-4.617-1.775-6.869c-0.034-0.137-0.068-0.273-0.111-0.401c-7.919-25.284-27.913-45.278-53.197-53.188
				c-0.119-0.043-0.247-0.077-0.367-0.111c-2.261-0.691-4.565-1.28-6.895-1.775c-0.572-0.119-1.152-0.222-1.724-0.324
				c-1.877-0.358-3.78-0.648-5.7-0.879c-0.913-0.102-1.835-0.188-2.756-0.265c-0.819-0.068-1.647-0.077-2.475-0.12v76.578h76.587
				c-0.043-0.845-0.06-1.698-0.128-2.534C229.982,158.709,229.905,157.821,229.803,156.942z"/>
			<path d="M208.316,221.845c10.871-11.563,18.364-26.283,20.975-42.641h-63.625L208.316,221.845z"/>
			<path d="M0,354.135c0,21.171,17.229,38.4,38.4,38.4h164.011l-12.8,51.2h-1.877c-23.526,0-42.667,19.14-42.667,42.667
				c0,4.71,3.823,8.533,8.533,8.533h204.8c4.719,0,8.533-3.823,8.533-8.533c0-23.526-19.14-42.667-42.667-42.667h-1.869l-12.8-51.2
				H473.6c21.18,0,38.4-17.229,38.4-38.4v-29.867H0V354.135z M219.998,392.535h72.004l12.8,51.2h-97.604L219.998,392.535z"/>
			<path d="M473.603,17.068h-435.2c-21.171,0-38.4,17.229-38.4,38.4v251.733h512V55.468
				C512.003,34.297,494.774,17.068,473.603,17.068z M360.877,62.209c0.853-0.768,1.707-1.365,2.816-1.792
				c3.157-1.365,6.912-0.597,9.301,1.792c1.536,1.621,2.475,3.84,2.475,6.059s-0.939,4.437-2.475,6.059
				c-1.621,1.536-3.84,2.475-6.059,2.475s-4.446-0.939-6.059-2.475c-1.545-1.621-2.475-3.84-2.475-6.059
				S359.333,63.831,360.877,62.209z M315.736,59.735h17.067c4.719,0,8.533,3.823,8.533,8.533s-3.814,8.533-8.533,8.533h-17.067
				c-4.719,0-8.533-3.823-8.533-8.533S311.017,59.735,315.736,59.735z M247.367,170.933l-0.154,3.524l-0.162,0.145
				c-2.142,25.719-14.251,48.597-32.435,64.862c-0.119,0.137-0.162,0.316-0.299,0.452c-0.213,0.213-0.495,0.29-0.725,0.478
				c-17.237,14.993-39.671,24.141-64.256,24.141c-54.11,0-98.133-44.023-98.133-98.133c0-51.336,39.646-93.517,89.907-97.715
				l0.034-0.034l3.661-0.282c0.742-0.034,1.468,0.034,2.21,0.017c0.777-0.017,1.536-0.119,2.321-0.119
				c1.075,0,2.116,0.128,3.183,0.162c1.468,0.051,2.935,0.102,4.403,0.222c2.065,0.162,4.104,0.401,6.135,0.691
				c1.203,0.171,2.406,0.333,3.601,0.546c2.21,0.401,4.378,0.896,6.537,1.434c1.041,0.265,2.082,0.512,3.115,0.802
				c2.167,0.623,4.292,1.348,6.391,2.108c1.041,0.375,2.082,0.734,3.106,1.143c1.937,0.776,3.814,1.647,5.692,2.543
				c1.169,0.563,2.355,1.092,3.499,1.69c1.562,0.828,3.055,1.741,4.557,2.637c1.382,0.828,2.782,1.621,4.13,2.509
				c1.058,0.717,2.065,1.502,3.098,2.253c1.664,1.203,3.345,2.381,4.932,3.695c0.034,0.026,0.068,0.06,0.102,0.085
				c2.381,1.971,4.702,4.019,6.904,6.221c2.091,2.082,4.019,4.301,5.897,6.554c0.136,0.162,0.299,0.316,0.435,0.478
				c1.229,1.502,2.33,3.081,3.473,4.642c0.836,1.143,1.707,2.253,2.492,3.439c0.811,1.22,1.536,2.5,2.287,3.763
				c0.99,1.638,1.988,3.277,2.884,4.975c0.529,1.015,0.99,2.057,1.485,3.089c0.973,2.014,1.911,4.036,2.739,6.118
				c0.367,0.913,0.683,1.835,1.015,2.756c0.811,2.21,1.562,4.446,2.219,6.724c0.273,0.964,0.495,1.937,0.742,2.901
				c0.555,2.202,1.058,4.42,1.459,6.682c0.222,1.195,0.384,2.389,0.555,3.593c0.282,2.005,0.521,4.019,0.683,6.067
				c0.119,1.502,0.179,3.004,0.23,4.523c0.026,1.033,0.154,2.048,0.154,3.089c0,0.777-0.102,1.528-0.119,2.304
				C247.333,169.448,247.401,170.19,247.367,170.933z M298.669,281.601c0,4.71-3.814,8.533-8.533,8.533s-8.533-3.823-8.533-8.533
				v-25.6c0-4.71,3.814-8.533,8.533-8.533s8.533,3.823,8.533,8.533V281.601z M307.203,110.935c0-4.71,3.814-8.533,8.533-8.533
				h68.267c4.719,0,8.533,3.823,8.533,8.533c0,4.71-3.814,8.533-8.533,8.533h-68.267
				C311.017,119.468,307.203,115.645,307.203,110.935z M332.803,281.601c0,4.71-3.814,8.533-8.533,8.533
				c-4.719,0-8.533-3.823-8.533-8.533v-59.733c0-4.71,3.814-8.533,8.533-8.533c4.719,0,8.533,3.823,8.533,8.533V281.601z
				 M366.936,281.601c0,4.71-3.814,8.533-8.533,8.533s-8.533-3.823-8.533-8.533v-42.667c0-4.71,3.814-8.533,8.533-8.533
				s8.533,3.823,8.533,8.533V281.601z M401.069,281.601c0,4.71-3.814,8.533-8.533,8.533c-4.719,0-8.533-3.823-8.533-8.533v-102.4
				c0-4.71,3.814-8.533,8.533-8.533c4.719,0,8.533,3.823,8.533,8.533V281.601z M435.203,281.601c0,4.71-3.814,8.533-8.533,8.533
				s-8.533-3.823-8.533-8.533v-68.267c0-4.71,3.814-8.533,8.533-8.533s8.533,3.823,8.533,8.533V281.601z M432.728,116.993
				c-1.621,1.536-3.84,2.475-6.059,2.475s-4.446-0.939-6.059-2.475c-0.341-0.427-0.768-0.853-1.024-1.28
				c-0.341-0.512-0.597-1.024-0.768-1.536c-0.256-0.512-0.427-1.024-0.512-1.536c-0.085-0.597-0.171-1.195-0.171-1.707
				c0-0.512,0.085-1.109,0.171-1.707c0.085-0.512,0.256-1.024,0.512-1.536c0.171-0.512,0.427-1.024,0.768-1.536
				c0.256-0.427,0.683-0.853,1.024-1.28c3.157-3.157,8.875-3.157,12.117,0c1.536,1.621,2.475,3.755,2.475,6.059
				C435.203,113.239,434.264,115.372,432.728,116.993z M426.669,76.801h-25.6c-4.719,0-8.533-3.823-8.533-8.533
				s3.814-8.533,8.533-8.533h25.6c4.719,0,8.533,3.823,8.533,8.533S431.388,76.801,426.669,76.801z"/>
		</g>
	</g>
</g>
<g>
</g>
<g>
</g>
<g>
</g>
<g>
</g>
<g>
</g>
<g>
</g>
<g>
</g>
<g>
</g>
<g>
</g>
<g>
</g>
<g>
</g>
<g>
</g>
<g>
</g>
<g>
</g>
<g>
</g>
</svg>
