<?xml version="1.0"?>
<svg fill="#667287" xmlns="http://www.w3.org/2000/svg" xmlns:xlink="http://www.w3.org/1999/xlink" version="1.1" id="Layer_1" x="0px" y="0px" viewBox="0 0 330 330" style="enable-background:new 0 0 330 330;" xml:space="preserve" width="512px" height="512px" class=""><g><g id="XMLID_2_">
	<path id="XMLID_4_" d="M305,0H105C69.158,0,40,29.159,40,65v15H25c-8.284,0-15,6.716-15,15s6.716,15,15,15h15v40H25   c-8.284,0-15,6.716-15,15s6.716,15,15,15h15v40H25c-8.284,0-15,6.716-15,15s6.716,15,15,15h15v15c0,35.841,29.158,65,65,65h200   c8.283,0,15-6.716,15-15V15C320,6.716,313.283,0,305,0z M110,244.999c0-38.662,31.34-70,70-70c-24.852,0-45-20.148-45-45   c0-24.853,20.148-45,45-45c24.852,0,45,20.147,45,45c0,24.852-20.148,45-45,45c38.66,0,70,31.338,70,70H110z" data-original="#000000" class="active-path" data-old_color="#000000" fill="#687588"/>
</g></g> </svg>
