<?xml version="1.0"?>
<svg xmlns="http://www.w3.org/2000/svg" id="Fill_out_line" height="512px" viewBox="0 0 512 512" width="512px" data-name="Fill out line" class=""><g><path d="m441.00005 488h-369.00005a48 48 0 0 1 -48-48l1-272h464v272.00005a48 48 0 0 1 -47.99995 47.99995z" fill="#eacf4d" data-original="#EACF4D" class="active-path" data-old_color="#eacf4d" style="fill:#AAA9A5"/><path d="m72 24h368v432h-368z" fill="#65dcff" data-original="#65DCFF" class="" data-old_color="#65dcff" style="fill:#EAF1F3"/><path d="m392 440.00005a48 48 0 0 0 48 48h-368a48 48 0 0 1 -48-48v-272.00005h112l40 40h216z" fill="#f2e368" data-original="#F2E368" class="" data-old_color="#f2e368" style="fill:#687588"/><path d="m424 448v16h16a7.99977 7.99977 0 0 0 8-8v-432a7.99977 7.99977 0 0 0 -8-8h-368a7.99977 7.99977 0 0 0 -8 8v120h16v-112h352v416z" data-original="#000000" class=""/><path d="m130.34326 66.34326-24 24a7.99915 7.99915 0 0 0 0 11.31348l24 24 11.31348-11.31348-18.34326-18.34326 18.34326-18.34326z" data-original="#000000" class=""/><path d="m253.65674 90.34326-24-24-11.31348 11.31348 18.34326 18.34326-18.34326 18.34326 11.31348 11.31348 24-24a7.99915 7.99915 0 0 0 0-11.31348z" data-original="#000000" class=""/><path d="m135.279 88h89.443v16h-89.443z" transform="matrix(.447 -.894 .894 .447 13.637 214.064)" data-original="#000000" class=""/><path d="m288 88h32v16h-32z" data-original="#000000" class=""/><path d="m336 88h80v16h-80z" data-original="#000000" class=""/><path d="m264 128h32v16h-32z" data-original="#000000" class=""/><path d="m312 128h56v16h-56z" data-original="#000000" class=""/><path d="m384 128h32v16h-32z" data-original="#000000" class=""/><path d="m248 160h32v16h-32z" data-original="#000000" class=""/><path d="m296 160h32v16h-32z" data-original="#000000" class=""/><path d="m344 160h72v16h-72z" data-original="#000000" class=""/><path d="m184 160h48v16h-48z" data-original="#000000" class=""/><path d="m488 160h-24v16h16v264a40 40 0 0 1 -80 0v-232a7.99977 7.99977 0 0 0 -8-8h-212.68652l-37.65674-37.65674a7.99877 7.99877 0 0 0 -5.65674-2.34326h-112a7.99977 7.99977 0 0 0 -8 8v272a56.06353 56.06353 0 0 0 56 56h368a56.06353 56.06353 0 0 0 56-56v-272a7.99977 7.99977 0 0 0 -8-8zm-416 320a40.04521 40.04521 0 0 1 -40-40v-264h100.68652l37.65674 37.65674a7.99877 7.99877 0 0 0 5.65674 2.34326h208v224a55.8339 55.8339 0 0 0 16.8457 40z" data-original="#000000" class=""/></g> </svg>
