<svg height="512" fill="#687588" viewBox="0 0 56 58" width="512" xmlns="http://www.w3.org/2000/svg"><g id="005---Question-Desk"><path id="Shape" d="m31.69 19.23c.6841245-.5977097 1.1399864-1.4140205 1.29-2.31v-5.92c0-2.76142375-2.2385763-5-5-5s-5 2.23857625-5 5v6c.161644.8640846.6131673 1.6471954 1.28 2.22.5998009.5428188 1.1304623 1.1574457 1.58 1.83.56.81.7.95 1.21.95h1.86c.5 0 .64-.14 1.21-.95.4434967-.6711985.9711214-1.2828398 1.57-1.82z"/><path id="Shape" d="m39.66 28.14-7.18-1.97c-.59.81-1.85 1.83-4.49 1.83s-3.92-1.03-4.51-1.83l-7.22 1.98c-.01 0-.8.3-1.13 1.85h25.71c-.33-1.55-1.14-1.85-1.18-1.86z"/><path id="Shape" d="m27.05 24c-.7757293.0250978-1.5264957-.2759342-2.07-.83v1.65c.791 1.582 5.232 1.591 6 0v-1.65c-1.05 1.03-2.011.83-3.93.83z"/><rect id="Rectangle-path" height="3" rx="1" width="56" y="32"/><path id="Shape" d="m54 37h-19.7c2.9438347 2.0510296 4.6985167 5.4121197 4.6985167 9s-1.754682 6.9489704-4.6985167 9h13.7c1.1032019.0032948 1.9967052.8967981 2 2v1h4z"/><path id="Shape" d="m37 46c0-4.9705627-4.0294373-9-9-9s-9 4.0294373-9 9 4.0294373 9 9 9c4.9673661-.007709 8.992291-4.0326339 9-9zm-11-3c0 .5522847-.4477153 1-1 1-2.089 0-.824-5 3-5 2.0098387.0057389 3.7033294 1.5019627 3.9566732 3.4957785s-1.0121382 3.8660208-2.9566732 4.3742215v1.13c0 .5522847-.4477153 1-1 1s-1-.4477153-1-1v-2c0-.5522847.4477153-1 1-1 1.1045695 0 2-.8954305 2-2s-.8954305-2-2-2-2 .8954305-2 2zm1 9c0-.5522847.4477153-1 1-1s1 .4477153 1 1-.4477153 1-1 1-1-.4477153-1-1z"/><path id="Shape" d="m6 57c.0032948-1.1032019.89679813-1.9967052 2-2h13.7c-2.9438347-2.0510296-4.6985167-5.4121197-4.6985167-9s1.754682-6.9489704 4.6985167-9h-19.7v21h4z"/><path id="Shape" d="m18.979 22h1c.5522847 0 1-.4477153 1-1s-.4477153-1-1-1h-1v-3h1.021c.5522847 0 1-.4477153 1-1v-4c0-.5522847-.4477153-1-1-1h-1.021v-2c0-3.237 3.931-7 9-7s9 3.763 9 7v2h-.979c-.5522847 0-1 .4477153-1 1v4c0 .5522847.4477153 1 1 1h1c1.1045695 0 2-.8954305 2-2v-4h-.021v-2c0-4.71-5.244-9-11-9s-11 4.29-11 9v11c0 1.1045695.8954305 2 2 2z"/></g></svg>