<svg height="512" fill="#687588" viewBox="0 0 56 58" width="512" xmlns="http://www.w3.org/2000/svg"><g id="036---Online-Sale"><path id="Shape" d="m37.66 56-2.4-8h-14.52l-2.4 8h-4.34c-.5522847 0-1 .4477153-1 1s.4477153 1 1 1h28c.5522847 0 1-.4477153 1-1s-.4477153-1-1-1z"/><circle id="Oval" cx="24.5" cy="21.5" r="1"/><circle id="Oval" cx="28" cy="7" r="1"/><path id="Shape" d="m36 13c0-2.42.07-2.55-.23-2.92l-7-9.76c-.1970794-.21256597-.4766982-.3291562-.7664094-.31956311s-.5610047.14442544-.7435906.36956311l-7 9.66c-.34.43-.26.49-.26 3h1c.5522847 0 1 .4477153 1 1s-.4477153 1-1 1h-1v16.97c0 1.1045695.8954305 2 2 2h12c1.1045695 0 2-.8954305 2-2v-17c-.5522847 0-1-.4477153-1-1s.4477153-1 1-1zm-8-9c1.6568542 0 3 1.34314575 3 3s-1.3431458 3-3 3-3-1.34314575-3-3 1.3431458-3 3-3zm2 10c0 .5522847-.4477153 1-1 1h-1c-.5522847 0-1-.4477153-1-1s.4477153-1 1-1h1c.5522847 0 1 .4477153 1 1zm-6-1h1c.5522847 0 1 .4477153 1 1s-.4477153 1-1 1h-1c-.5522847 0-1-.4477153-1-1s.4477153-1 1-1zm.5 6c1.3807119 0 2.5 1.1192881 2.5 2.5s-1.1192881 2.5-2.5 2.5-2.5-1.1192881-2.5-2.5 1.1192881-2.5 2.5-2.5zm7 13c-1.3807119 0-2.5-1.1192881-2.5-2.5s1.1192881-2.5 2.5-2.5 2.5 1.1192881 2.5 2.5-1.1192881 2.5-2.5 2.5zm2.21-10.29-10 10c-.1887188.1871865-.444197.2915368-.71.29-.4062651.0023626-.77358-.2413038-.929371-.6165185-.1557909-.3752147-.0690889-.807391.219371-1.0934815l10-10c.3921222-.3921221 1.0278778-.3921221 1.42 0 .3921221.3921222.3921221 1.0278778 0 1.42zm-.71-6.71h-1c-.5522847 0-1-.4477153-1-1s.4477153-1 1-1h1c.5522847 0 1 .4477153 1 1s-.4477153 1-1 1z"/><circle id="Oval" cx="31.5" cy="29.5" r="1"/><path id="Shape" d="m8 39h48v-33c0-.55228475-.4477153-1-1-1h-20.43l2.79 3.86c.4141871.52775921.6395226 1.1791196.64 1.85v21.29c0 2.209139-1.790861 4-4 4h-12c-2.209139 0-4-1.790861-4-4v-21.29c.0004618-.692855.2407299-1.36419216.68-1.9l2.75-3.81h-20.43c-.55228475 0-1 .44771525-1 1v33h4c.55228475 0 1 .4477153 1 1s-.44771525 1-1 1h-4v4c0 .5522847.44771525 1 1 1h54c.5522847 0 1-.4477153 1-1v-4h-48c-.55228475 0-1-.4477153-1-1s.44771525-1 1-1zm32-31h13c.5522847 0 1 .44771525 1 1s-.4477153 1-1 1h-13c-.5522847 0-1-.44771525-1-1s.4477153-1 1-1zm-37 2c-.55228475 0-1-.44771525-1-1s.44771525-1 1-1h13c.5522847 0 1 .44771525 1 1s-.4477153 1-1 1z"/></g></svg>