<svg height="512" viewBox="0 0 58 59" width="512" xmlns="http://www.w3.org/2000/svg"><g id="005---Question-Desk" fill="none"><path id="Shape" d="m56 36v22c0 .5522847-.4477153 1-1 1h-4c-.5522847 0-1-.4477153-1-1v-1c0-.5522847-.4477153-1-1-1h-40c-.55228475 0-1 .4477153-1 1v1c0 .5522847-.44771525 1-1 1h-4c-.55228475 0-1-.4477153-1-1v-22l27.625-1.5z" fill="#805333"/><path id="Shape" d="m53.5 36v22c.0221011.5264372-.3838172.9725012-.91 1h-1.59c-.5522847 0-1-.4477153-1-1v-1c0-.5522847-.4477153-1-1-1h-40c-.55228475 0-1 .4477153-1 1v1c0 .5522847-.44771525 1-1 1h-1.59c-.52618283-.0274988-.93210114-.4735628-.91-1v-22z" fill="#a56a43"/><path id="Shape" d="m37.874 14.5c-.5522847 0-1-.4477153-1-1v-4c0-3.237-3.467-7-7.937-7s-7.937 3.763-7.937 7v4c0 .5522847-.4477153 1-1 1s-1-.4477153-1-1v-4c0-4.249 4.25-9 9.937-9s9.937 4.751 9.937 9v4c0 .5522847-.4477153 1-1 1z" fill="#a5a5a4"/><path id="Shape" d="m35.479 11.5h3.5v6h-5.5v-4c0-1.1045695.8954305-2 2-2z" fill="#285680" transform="matrix(-1 0 0 -1 72.458 29)"/><path id="Shape" d="m32.979 25.5 7.971 2.18s1.85.49 2.03 3.82h-27.98c.17-3.33 2-3.82 2-3.82l7.979-2.18z" fill="#4482c3"/><rect id="Rectangle-path" fill="#cf976a" height="5" rx="2" width="58" y="31"/><circle id="Oval" cx="29" cy="46" fill="#f29c1f" r="9.75"/><path id="Shape" d="m29 49c-.5522847 0-1-.4477153-1-1v-2c0-.5522847.4477153-1 1-1 1.1045695 0 2-.8954305 2-2s-.8954305-2-2-2-2 .8954305-2 2c0 .5522847-.4477153 1-1 1-2.092 0-.814-5 3-5 2.0157976-.0019923 3.7181133 1.4963087 3.9720803 3.4960449s-1.0197784 3.8759978-2.9720803 4.3779551v1.126c0 .5522847-.4477153 1-1 1z" fill="#fff"/><circle id="Oval" cx="29" cy="52" fill="#fff" r="1"/><path id="Shape" d="m32.979 20.84v4.66s-.481 2-3.991 2-4.009-2-4.009-2v-4.66z" fill="#f9c795"/><path id="Rectangle-path" d="m18.978 11.5h11.37v6h-11.37z" fill="#285680"/><path id="Shape" d="m34.978 11.5v6c-.170656 1.1559036-.7487457 2.2127793-1.63 2.98-1.72 1.51-1.72 3.02-3.44 3.02h-1.86c-1.72 0-1.72-1.51-3.44-3.02-.8812543-.7672207-1.459344-1.8240964-1.63-2.98v-6c0-3.3137085 2.6862915-6 6-6s6 2.6862915 6 6z" fill="#fdd7ad"/><path id="Shape" d="m21.979 22.5h-1c-1.1045695 0-2-.8954305-2-2v-3c0-.5522847.4477153-1 1-1s1 .4477153 1 1v3h1c.5522847 0 1 .4477153 1 1s-.4477153 1-1 1z" fill="#7f8284"/><path id="Shape" d="m29 57c-6.0751322 0-11-4.9248678-11-11s4.9248678-11 11-11 11 4.9248678 11 11c-.0071635 6.0721626-4.9278374 10.9928365-11 11zm0-20c-4.9705627 0-9 4.0294373-9 9s4.0294373 9 9 9 9-4.0294373 9-9c-.006061-4.9680501-4.0319499-8.993939-9-9z" fill="#fff"/></g></svg>