<svg height="512" viewBox="0 0 58 59" width="512" xmlns="http://www.w3.org/2000/svg"><g id="036---Online-Sale" fill="none" transform="translate(0 -1)"><path id="Shape" d="m40 59h-22l3-10 8-2 8 2z" fill="#95a5a5"/><path id="Shape" d="m43 60h-28c-.5522847 0-1-.4477153-1-1s.4477153-1 1-1h28c.5522847 0 1 .4477153 1 1s-.4477153 1-1 1z" fill="#bdc3c7"/><path id="Shape" d="m57.27 6.46c-.2471598-.22340264-.546213-.3815227-.87-.46-.1327949-.01694579-.2672051-.01694579-.4 0h-54c-1.1045695 0-2 .8954305-2 2v36h58v-36c-.0015001-.59651059-.2691853-1.16121646-.73-1.54z" fill="#2fa8cc"/><path id="Shape" d="m56.38 6c-9.38.36-56.38 3.6-56.38 36v-34c0-1.1045695.8954305-2 2-2h54c.1262054-.01528754.2537946-.01528754.38 0z" fill="#67b9cc"/><path id="Shape" d="m58 42v5c0 1.1045695-.8954305 2-2 2h-54c-1.1045695 0-2-.8954305-2-2v-5z" fill="#bdc3c7"/><path id="Shape" d="m37.55 11.45-7-9.72c-.3798219-.46579113-.9489792-.73607753-1.55-.73607753s-1.1701781.2702864-1.55.73607753l-7 9.72c-.2902022.3558846-.4490983.8007938-.45 1.26v21.29c0 1.6568542 1.3431458 3 3 3h12c1.6568542 0 3-1.3431458 3-3v-21.29c-.0009017-.4592062-.1597978-.9041154-.45-1.26zm-8.55-.45c-1.1045695 0-2-.8954305-2-2s.8954305-2 2-2 2 .8954305 2 2-.8954305 2-2 2z" fill="#e64c3c"/><circle id="Oval" cx="25.5" cy="23.5" fill="#fff" r="1.5"/><circle id="Oval" cx="32.5" cy="31.5" fill="#fff" r="1.5"/><path id="Shape" d="m24 34c-.265803.0015368-.5212812-.1028135-.71-.29-.1893127-.1877666-.2957983-.4433625-.2957983-.71s.1064856-.5222334.2957983-.71l10-10c.3921222-.3921221 1.0278778-.3921221 1.42 0 .3921221.3921222.3921221 1.0278778 0 1.42l-10 10c-.1887188.1871865-.444197.2915368-.71.29z" fill="#fff"/><g fill="#f29c1f"><path id="Shape" d="m23 16c0 .5522847-.4477153 1-1 1h-2v-2h2c.5522847 0 1 .4477153 1 1z"/><path id="Shape" d="m26 17h-1c-.5522847 0-1-.4477153-1-1s.4477153-1 1-1h1c.5522847 0 1 .4477153 1 1s-.4477153 1-1 1z"/><path id="Shape" d="m30 17h-1c-.5522847 0-1-.4477153-1-1s.4477153-1 1-1h1c.5522847 0 1 .4477153 1 1s-.4477153 1-1 1z"/><path id="Shape" d="m34 17h-1c-.5522847 0-1-.4477153-1-1s.4477153-1 1-1h1c.5522847 0 1 .4477153 1 1s-.4477153 1-1 1z"/><path id="Shape" d="m38 15v2h-1c-.5522847 0-1-.4477153-1-1s.4477153-1 1-1z"/></g><path id="Shape" d="m17 12h-13c-.55228475 0-1-.4477153-1-1s.44771525-1 1-1h13c.5522847 0 1 .4477153 1 1s-.4477153 1-1 1z" fill="#9fc9d3"/><path id="Shape" d="m54 12h-13c-.5522847 0-1-.4477153-1-1s.4477153-1 1-1h13c.5522847 0 1 .4477153 1 1s-.4477153 1-1 1z" fill="#9fc9d3"/></g></svg>